<svg xmlns="http://www.w3.org/2000/svg" viewBox="0 0 123.75 149.2"><defs><style>.cls-1{fill:#ddcf6a}.cls-2{fill:none;stroke:#5489ba;stroke-linecap:round;stroke-linejoin:round;stroke-width:5.2px}</style></defs><title>ports</title><g id="Layer_2" data-name="Layer 2"><g id="Layer_1-2" data-name="Layer 1"><circle cx="95" cy="34.98" r="26.63" class="cls-1"/><polygon points="45.4 2.6 19.2 76.91 45.4 76.91 45.4 2.6" class="cls-2"/><polygon points="54.92 2.94 54.92 76.91 106.63 76.91 54.92 2.94" class="cls-2"/><polygon points="109.77 102.42 12.16 102.42 2.6 85.97 119.33 85.97 109.77 102.42" class="cls-2"/><line x1="29.79" x2="121.15" y1="112.72" y2="112.72" class="cls-2"/><line x1="3.37" x2="19.4" y1="112.72" y2="112.72" class="cls-2"/><line x1="68.76" x2="94.74" y1="123.22" y2="123.22" class="cls-2"/><line x1="37.58" x2="29.79" y1="134.91" y2="134.91" class="cls-2"/><line x1="19.4" x2="59.67" y1="123.22" y2="123.22" class="cls-2"/><line x1="45.38" x2="73.95" y1="146.6" y2="146.6" class="cls-2"/><line x1="105.13" x2="111.62" y1="123.22" y2="123.22" class="cls-2"/><line x1="47.97" x2="97.33" y1="134.91" y2="134.91" class="cls-2"/></g></g></svg>